<?xml version="1.0" standalone="no"?>
<!DOCTYPE svg PUBLIC "-//W3C//DTD SVG 20010904//EN"
 "http://www.w3.org/TR/2001/REC-SVG-20010904/DTD/svg10.dtd">
<svg version="1.0" xmlns="http://www.w3.org/2000/svg"
 width="225.000000pt" height="225.000000pt" viewBox="0 0 225.000000 225.000000"
 preserveAspectRatio="xMidYMid meet">
<metadata>
Created by potrace 1.11, written by Peter Selinger 2001-2013
</metadata>
<g transform="translate(0.000000,225.000000) scale(0.100000,-0.100000)"
fill="#000000" stroke="none">
<path d="M16 1984 c-14 -14 -16 -105 -16 -859 0 -754 2 -845 16 -859 14 -14
105 -16 855 -16 826 0 839 0 859 20 19 19 20 33 20 498 l0 477 240 240 c163
163 244 251 251 273 19 57 4 94 -60 156 -53 50 -64 56 -101 56 -23 0 -51 -5
-63 -11 -12 -6 -77 -66 -144 -132 l-123 -122 0 125 c0 97 -3 131 -16 148 l-15
22 -844 0 c-754 0 -845 -2 -859 -16z m1644 -222 l0 -147 -415 -415 -415 -415
-47 -142 c-65 -196 -61 -200 147 -132 l125 41 303 302 302 301 0 -408 0 -407
-785 0 -785 0 0 785 0 785 785 0 785 0 0 -148z m460 92 c22 -20 40 -44 40 -52
0 -9 -30 -47 -67 -84 l-67 -68 -54 52 -53 53 73 67 c40 37 76 67 80 68 5 0 26
-16 48 -36z m-207 -222 l47 -47 -478 -478 -477 -477 -72 -24 c-40 -14 -73 -22
-73 -19 0 4 10 38 23 77 l22 70 475 473 c261 260 477 473 480 473 3 0 27 -21
53 -48z"/>
<path d="M316 1704 c-19 -18 -21 -45 -4 -62 17 -17 859 -17 876 0 18 18 14 56
-7 68 -13 6 -168 10 -435 10 -364 0 -417 -2 -430 -16z"/>
<path d="M1326 1704 c-19 -18 -20 -28 -6 -55 8 -14 21 -19 53 -19 48 0 67 13
67 47 0 40 -82 60 -114 27z"/>
<path d="M322 1444 c-24 -17 -29 -43 -10 -62 17 -17 819 -17 836 0 18 18 14
56 -7 68 -13 6 -159 10 -408 10 -335 0 -392 -2 -411 -16z"/>
<path d="M312 1178 c-15 -15 -15 -41 0 -56 9 -9 85 -12 279 -12 290 0 298 2
285 55 l-6 25 -273 0 c-199 0 -276 -3 -285 -12z"/>
<path d="M316 924 c-9 -8 -16 -23 -16 -33 0 -37 19 -41 181 -41 130 0 160 3
173 16 9 8 16 22 16 29 0 7 -7 21 -16 29 -23 23 -315 23 -338 0z"/>
</g>
</svg>
